#!OML:ASF H:\Terrain\Patient Classification 1\Walking\steve\steve.ASF
:FULLY-SPECIFIED
:DEGREES
243
root 7.32651 16.1319 -7.04345 4.4646 -5.73957 2.19302
lowerback -0.540785 2.67904 -3.66671
upperback -1.76753 3.54703 -0.857435
thorax -1.68037 1.81897 1.13087
lowerneck -9.90754 0.0210447 -1.94868
upperneck 18.8789 -0.015859 2.02918
head 7.42547 0.0423897 0.986356
rclavicle 7.04614e-014 -3.97569e-015
rhumerus -46.9249 -12.4123 -80.0439
rradius 25.0538
rwrist 3.20337
rhand -19.3676 -36.8053
rfingers 7.12502
rthumb 6.95029 -66.6712
lclavicle 7.04614e-014 -3.97569e-015
lhumerus -24.8499 11.9435 82.7911
lradius 21.5264
lwrist 5.83351
lhand -22.6532 -12.9106
lfingers 7.12502
lthumb 3.77801 17.0356
rfemur -29.4527 2.24109 19.5371
rtibia 62.8332
rfoot -14.9558 3.64954
rtoes -19.6487
lfemur -16.2642 1.21609 -26.9592
ltibia 30.2219
lfoot -18.3818 0.424715
ltoes -3.94329
244
root 7.33079 16.1251 -6.90539 4.45385 -5.5902 2.33574
lowerback -0.413499 2.63817 -3.72271
upperback -1.86779 3.4826 -0.9228
thorax -1.8513 1.79066 1.08626
lowerneck -9.81511 -0.0021777 -1.74304
upperneck 18.9757 -0.0441632 1.81259
head 7.44149 0.0232523 0.878986
rclavicle -2.43822e-016 -1.37161e-014
rhumerus -47.7711 -13.949 -78.613
rradius 24.1217
rwrist 5.07367
rhand -18.3659 -36.3418
rfingers 7.12502
rthumb 7.91715 -66.1735
lclavicle -2.43822e-016 -1.37161e-014
lhumerus -23.8045 9.80151 83.6144
lradius 22.1228
lwrist 7.43962
lhand -23.1747 -12.9186
lfingers 7.12502
lthumb 3.27441 17.036
rfemur -30.4679 2.05929 19.6068
rtibia 61.6647
rfoot -16.0263 3.46143
rtoes -17.1408
lfemur -15.6056 1.08413 -27.1732
ltibia 29.9936
lfoot -18.7753 0.313298
ltoes -3.63398
245
root 7.3357 16.1243 -6.76462 4.38072 -5.47534 2.37541
lowerback -0.257888 2.55693 -3.79293
upperback -1.85354 3.36694 -0.90431
thorax -1.92383 1.735 1.13897
lowerneck -10.0406 0.0463769 -1.48483
upperneck 19.0817 0.0218539 1.59343
head 7.51577 0.053737 0.771408
rclavicle 2.5255e-014 1.00386e-014
rhumerus -48.5807 -15.1913 -77.407
rradius 23.5482
rwrist 6.27372
rhand -16.2227 -38.8483
rfingers 7.12502
rthumb 9.98536 -68.5915
lclavicle 2.5255e-014 1.00386e-014
lhumerus -22.9305 8.84127 84.0788
lradius 23.123
lwrist 7.7428
lhand -23.4183 -12.7803
lfingers 7.12502
lthumb 3.03918 17.1778
rfemur -31.3189 2.02692 19.7379
rtibia 60.3307
rfoot -17.0386 3.28126
rtoes -16.1341
lfemur -14.7834 1.15592 -27.2932
ltibia 29.6265
lfoot -19.0963 0.357905
ltoes -5.03108
246
root 7.34418 16.1308 -6.62449 4.34494 -5.40528 2.29726
lowerback -0.166131 2.42584 -3.77932
upperback -1.83727 3.19035 -0.774278
thorax -1.95661 1.64812 1.26438
lowerneck -9.98518 0.124507 -1.4657
upperneck 18.9431 0.145911 1.4921
head 7.45855 0.104738 0.745746
rclavicle 4.73892e-014 1.50082e-014
rhumerus -49.3961 -15.5261 -76.6187
rradius 23.2709
rwrist 6.84038
rhand -12.1167 -43.5591
rfingers 7.12502
rthumb 13.9446 -73.0715
lclavicle 4.73892e-014 1.50082e-014
lhumerus -22.0609 8.15783 84.5377
lradius 23.9664
lwrist 8.21778
lhand -23.6059 -12.9428
lfingers 7.12502
lthumb 2.85794 17.0178
rfemur -32.1347 1.99292 19.9407
rtibia 58.8335
rfoot -17.5807 3.58253
rtoes -16.0854
lfemur -13.8871 1.32325 -27.2888
ltibia 29.0669
lfoot -19.3104 0.358464
ltoes -6.37019
247
root 7.34862 16.1416 -6.48409 4.38306 -5.1781 2.32844
lowerback -0.0563048 2.21929 -3.93689
upperback -1.96539 2.90674 -0.646622
thorax -2.15088 1.5151 1.48069
lowerneck -9.37897 0.101951 -1.54801
upperneck 18.5661 0.162673 1.2855
head 7.22736 0.0868684 0.690261
rclavicle -1.96863e-014 2.23633e-015
rhumerus -50.3327 -16.0157 -75.4337
rradius 22.7406
rwrist 7.53615
rhand -11.2545 -44.0286
rfingers 7.12502
rthumb 14.7753 -73.4819
lclavicle -1.96863e-014 2.23633e-015
lhumerus -21.3576 6.86898 85.0034
lradius 24.8543
lwrist 9.6999
lhand -23.4992 -12.7283
lfingers 7.12502
lthumb 2.96097 17.2308
rfemur -32.9723 1.86399 20.0372
rtibia 57.2228
rfoot -17.7538 4.10021
rtoes -15.9086
lfemur -12.9582 1.2566 -27.3515
ltibia 28.3224
lfoot -19.4655 0.0406587
ltoes -5.50632
248
root 7.34802 16.1463 -6.33806 4.26285 -4.99657 2.64864
lowerback 0.00330329 2.08028 -4.29214
upperback -1.95522 2.71357 -0.694343
thorax -2.17846 1.42466 1.63202
lowerneck -9.28109 0.0395028 -1.70073
upperneck 18.579 0.0771418 1.407
head 7.2152 0.0455349 0.747393
rclavicle -4.85128e-014 -4.32357e-015
rhumerus -51.2326 -17.0566 -74.0582
rradius 22.1852
rwrist 8.08863
rhand -14.1805 -40.7911
rfingers 7.12502
rthumb 11.9551 -70.4297
lclavicle -4.85128e-014 -4.32357e-015
lhumerus -20.5543 5.55277 85.3096
lradius 25.8837
lwrist 11.2264
lhand -22.9634 -12.2673
lfingers 7.12502
lthumb 3.47843 17.6841
rfemur -33.5588 1.79445 19.8466
rtibia 55.5291
rfoot -17.8534 3.99181
rtoes -16.9995
lfemur -11.7994 1.14103 -27.7075
ltibia 27.4389
lfoot -19.5931 -0.420431
ltoes -3.52412
249
root 7.35472 16.1478 -6.18967 4.07826 -5.05927 2.82187
lowerback -0.0205181 2.02785 -4.34991
upperback -1.79052 2.64824 -0.743221
thorax -1.99167 1.38673 1.62085
lowerneck -9.53922 0.0745329 -1.95597
upperneck 18.6732 0.0920382 1.82244
head 7.29056 0.0724393 0.927527
rclavicle 5.3074e-016 -1.60022e-014
rhumerus -51.9913 -17.9405 -72.941
rradius 21.8921
rwrist 8.82513
rhand -15.8703 -38.237
rfingers 7.12502
rthumb 10.3253 -67.9635
lclavicle 5.3074e-016 -1.60022e-014
lhumerus -19.4631 4.39702 85.529
lradius 26.7012
lwrist 12.6745
lhand -22.7519 -12.0757
lfingers 7.12502
lthumb 3.68268 17.8723
rfemur -34.0024 1.95757 19.7813
rtibia 53.6801
rfoot -17.6859 2.94909
rtoes -18.5846
lfemur -10.5394 1.03995 -27.9684
ltibia 26.5084
lfoot -19.6739 -0.503118
ltoes -2.32235
250
root 7.36087 16.1535 -6.04693 4.04594 -5.09209 2.74998
lowerback 0.00458868 1.94379 -4.29286
upperback -1.7547 2.53802 -0.648644
thorax -1.96376 1.33066 1.68867
lowerneck -9.63899 0.126149 -1.93453
upperneck 18.7489 0.179201 1.72381
head 7.33156 0.106825 0.900432
rclavicle 9.09168e-015 3.72721e-015
rhumerus -52.7701 -18.2994 -72.0351
rradius 21.6249
rwrist 9.44682
rhand -16.0073 -37.1989
rfingers 7.12502
rthumb 10.1931 -66.9319
lclavicle 9.09168e-015 3.72721e-015
lhumerus -18.5321 3.45593 85.7074
lradius 27.3787
lwrist 13.5864
lhand -22.8988 -12.5393
lfingers 7.12502
lthumb 3.54081 17.411
rfemur -34.6021 2.32978 19.9087
rtibia 51.6733
rfoot -17.1159 2.57346
rtoes -17.3817
lfemur -9.4596 0.867693 -27.9494
ltibia 25.6146
lfoot -19.7301 -0.576681
ltoes -1.13818
251
root 7.36086 16.1608 -5.90527 4.17075 -5.03876 2.65411
lowerback -0.0270474 1.84616 -4.32141
upperback -1.8587 2.40822 -0.52998
thorax -2.05161 1.27067 1.82815
lowerneck -9.73048 0.169855 -1.78387
upperneck 19.0582 0.257301 1.49366
head 7.44836 0.133433 0.809412
rclavicle 9.2961e-015 8.87698e-015
rhumerus -53.7476 -18.7205 -70.9792
rradius 21.3555
rwrist 10.0247
rhand -15.8746 -36.8627
rfingers 7.12502
rthumb 10.3212 -66.5895
lclavicle 9.2961e-015 8.87698e-015
lhumerus -17.8403 2.67965 85.8697
lradius 28.1485
lwrist 14.2003
lhand -22.956 -13.1483
lfingers 7.12502
lthumb 3.4856 16.8029
rfemur -35.2671 2.6181 20.0701
rtibia 49.5838
rfoot -16.5457 3.57074
rtoes -14.1561
lfemur -8.5736 0.833931 -27.8763
ltibia 24.7576
lfoot -19.807 -0.685298
ltoes -0.922381
252
root 7.36165 16.1663 -5.75777 4.35834 -4.98866 2.51523
lowerback -0.159494 1.71826 -4.33418
upperback -1.98087 2.24417 -0.350789
thorax -2.10043 1.19366 2.02501
lowerneck -9.61829 0.249223 -1.74214
upperneck 19.0543 0.387463 1.33928
head 7.42531 0.184097 0.76354
rclavicle 2.62636e-014 1.87852e-014
rhumerus -54.7549 -18.9917 -69.881
rradius 21.2035
rwrist 10.7269
rhand -15.7442 -36.5022
rfingers 7.12502
rthumb 10.4469 -66.2227
lclavicle 2.62636e-014 1.87852e-014
lhumerus -17.2529 2.09743 86.022
lradius 29.1284
lwrist 14.99
lhand -23.0066 -13.2027
lfingers 7.12502
lthumb 3.43675 16.7494
rfemur -35.8365 2.8318 20.2898
rtibia 47.5
rfoot -16.1364 4.16936
rtoes -12.6433
lfemur -7.71952 0.987191 -27.7688
ltibia 23.8952
lfoot -19.8383 -0.796008
ltoes -1.94656
253
root 7.36188 16.182 -5.60804 4.47209 -4.87182 2.34008
lowerback -0.396762 1.57796 -4.23822
upperback -1.92244 2.07374 -0.210791
thorax -1.89674 1.1036 2.12755
lowerneck -9.83728 0.289169 -1.61818
upperneck 19.0513 0.458301 1.16394
head 7.4634 0.211014 0.692817
rclavicle 7.84345e-015 5.2181e-015
rhumerus -55.4817 -19.0991 -69.2629
rradius 21.1175
rwrist 11.3866
rhand -15.7691 -36.0823
rfingers 7.12502
rthumb 10.4229 -65.804
lclavicle 7.84345e-015 5.2181e-015
lhumerus -16.3393 1.40271 86.0616
lradius 29.8799
lwrist 15.4675
lhand -23.1313 -13.294
lfingers 7.12502
lthumb 3.31625 16.66
rfemur -36.2916 3.21015 20.4451
rtibia 45.5627
rfoot -15.8027 4.28859
rtoes -12.3134
lfemur -6.71186 1.13799 -27.5843
ltibia 22.8867
lfoot -19.8113 -1.15966
ltoes -2.12092
254
root 7.36108 16.2076 -5.46544 4.5619 -4.66349 2.22439
lowerback -0.541981 1.47658 -4.02697
upperback -1.84272 1.94871 -0.21695
thorax -1.71636 1.03319 2.01111
lowerneck -10.1197 0.281346 -1.51272
upperneck 19.166 0.450402 1.07333
head 7.55238 0.206457 0.646405
rclavicle -5.27866e-015 -1.23246e-014
rhumerus -56.1323 -19.4252 -68.7707
rradius 20.9391
rwrist 11.9986
rhand -16.0462 -35.958
rfingers 7.12502
rthumb 10.1556 -65.6929
lclavicle -5.27866e-015 -1.23246e-014
lhumerus -15.2845 0.351862 86.0178
lradius 30.3899
lwrist 15.746
lhand -23.2865 -13.6034
lfingers 7.12502
lthumb 3.16642 16.3528
rfemur -36.7829 3.63497 20.4862
rtibia 43.8032
rfoot -15.645 4.31187
rtoes -11.3341
lfemur -5.6297 1.30458 -27.4409
ltibia 21.6641
lfoot -19.5905 -1.29749
ltoes -2.73083
255
root 7.36335 16.218 -5.32567 4.56498 -4.51726 2.55034
lowerback -0.408283 1.41214 -4.2293
upperback -1.91585 1.85138 -0.342944
thorax -1.86325 0.990341 1.99123
lowerneck -9.83643 0.245216 -1.55019
upperneck 18.9749 0.401819 1.08082
head 7.43953 0.181285 0.648692
rclavicle 9.20583e-015 -2.0773e-014
rhumerus -56.9479 -19.5845 -68.1422
rradius 20.7445
rwrist 12.1271
rhand -16.2959 -36.0747
rfingers 7.12502
rthumb 9.91471 -65.8212
lclavicle 9.20583e-015 -2.0773e-014
lhumerus -14.5783 -0.549159 85.9897
lradius 31.084
lwrist 16.2541
lhand -23.1668 -13.4804
lfingers 7.12502
lthumb 3.28203 16.474
rfemur -37.3575 3.97071 20.0705
rtibia 42.1663
rfoot -14.7065 4.20315
rtoes -9.89559
lfemur -4.44824 1.51335 -27.8007
ltibia 20.3495
lfoot -19.2523 -1.33139
ltoes -3.83364
256
root 7.36819 16.2118 -5.18678 4.5368 -4.46692 3.02397
lowerback -0.125754 1.34319 -4.69423
upperback -2.07913 1.73414 -0.429646
thorax -2.1956 0.948051 2.15385
lowerneck -9.42665 0.199906 -1.73975
upperneck 18.7127 0.328422 1.27384
head 7.28077 0.150059 0.733917
rclavicle -1.22687e-016 -2.78299e-015
rhumerus -57.8619 -19.5256 -67.5505
rradius 20.6638
rwrist 12.0448
rhand -16.3502 -35.9204
rfingers 7.12502
rthumb 9.86226 -65.6695
lclavicle -1.22687e-016 -2.78299e-015
lhumerus -14.0473 -1.19039 85.9507
lradius 31.818
lwrist 17.0531
lhand -22.797 -13.2027
lfingers 7.12502
lthumb 3.6391 16.746
rfemur -37.9764 4.16575 19.5479
rtibia 40.5694
rfoot -14.0002 4.39669
rtoes -9.17232
lfemur -3.31476 1.66295 -28.3328
ltibia 19.1156
lfoot -19.0095 -1.55343
ltoes -3.85251
